<svg xmlns="http://www.w3.org/2000/svg" width="192" height="64" viewBox="0 0 192 64">
    <g fill="none" fill-rule="nonzero">
        <path fill="#A6A6A6" d="M176.216 0H15.256c-.587 0-1.167 0-1.752.003-.49.003-.976.013-1.47.02a21.144 21.144 0 0 0-3.207.283C7.77.486 6.743.824 5.786 1.31a10.3 10.3 0 0 0-2.59 1.886c-.764.758-1.4 1.634-1.885 2.594a10.562 10.562 0 0 0-1 3.045 20.789 20.789 0 0 0-.287 3.204c-.015.49-.016.982-.024 1.473v36.983c.008.497.01.978.024 1.475.013 1.073.109 2.144.287 3.203a10.54 10.54 0 0 0 1 3.047 9.932 9.932 0 0 0 1.885 2.583 10.04 10.04 0 0 0 2.59 1.886c.957.486 1.983.827 3.041 1.009 1.06.174 2.132.269 3.207.283.494.01.98.017 1.47.017.585.003 1.165.003 1.751.003h160.96c.576 0 1.16 0 1.735-.003.488 0 .988-.006 1.475-.017a21.246 21.246 0 0 0 3.2-.283 10.887 10.887 0 0 0 3.053-1.01 10.044 10.044 0 0 0 2.588-1.885c.762-.757 1.4-1.628 1.89-2.583.483-.96.817-1.987.99-3.047a21.61 21.61 0 0 0 .298-3.203c.006-.497.006-.978.006-1.475.013-.582.013-1.16.013-1.75V15.258c0-.586 0-1.167-.013-1.747 0-.49 0-.983-.006-1.473a21.611 21.611 0 0 0-.297-3.204 10.588 10.588 0 0 0-.99-3.045 10.346 10.346 0 0 0-4.479-4.48 10.828 10.828 0 0 0-3.053-1.003 20.87 20.87 0 0 0-3.2-.283c-.487-.008-.987-.017-1.475-.02C177.375 0 176.79 0 176.216 0z"/>
        <path fill="#000" d="M13.512 62.6c-.488 0-.963-.006-1.447-.017a20.3 20.3 0 0 1-2.99-.261 9.414 9.414 0 0 1-2.652-.877 8.65 8.65 0 0 1-2.235-1.626 8.513 8.513 0 0 1-1.633-2.235 9.155 9.155 0 0 1-.868-2.651 19.862 19.862 0 0 1-.267-3c-.01-.338-.023-1.461-.023-1.461V13.51s.014-1.106.023-1.431c.013-1.004.101-2.005.265-2.996a9.209 9.209 0 0 1 .87-2.659 8.598 8.598 0 0 1 1.624-2.237 8.905 8.905 0 0 1 2.244-1.636 9.317 9.317 0 0 1 2.645-.87c.992-.162 1.995-.25 3-.262l1.445-.02h164.43l1.46.02c.996.012 1.99.1 2.974.26.93.158 1.83.454 2.673.877a8.95 8.95 0 0 1 3.864 3.872 9.22 9.22 0 0 1 .856 2.638c.166.999.26 2.008.278 3.02.005.453.005.94.005 1.424.013.6.013 1.171.013 1.747v33.486c0 .581 0 1.148-.013 1.72 0 .52 0 .997-.006 1.488a20.37 20.37 0 0 1-.274 2.965c-.149.93-.44 1.831-.864 2.672a8.768 8.768 0 0 1-1.625 2.217 8.66 8.66 0 0 1-2.239 1.636c-.84.426-1.74.722-2.668.88-.99.161-1.99.249-2.991.26-.469.012-.96.018-1.436.018l-1.734.003L13.512 62.6z"/>
        <path fill="#FFF" d="M67.684 43.423H60.11l-1.819 5.37h-3.207l7.173-19.868h3.333l7.173 19.869h-3.262l-1.817-5.37zm-6.79-2.478h6.004l-2.96-8.715h-.082l-2.961 8.715zm27.362.607c0 4.501-2.41 7.393-6.046 7.393a4.91 4.91 0 0 1-4.558-2.534h-.068v7.175H74.61V34.308h2.878v2.41h.055a5.139 5.139 0 0 1 4.613-2.562c3.676 0 6.1 2.906 6.1 7.396zm-3.057 0c0-2.933-1.515-4.861-3.828-4.861-2.272 0-3.8 1.968-3.8 4.86 0 2.92 1.528 4.874 3.8 4.874 2.313 0 3.828-1.914 3.828-4.873zm19 0c0 4.501-2.41 7.393-6.045 7.393a4.91 4.91 0 0 1-4.558-2.534h-.069v7.175h-2.973V34.308h2.878v2.41h.055a5.139 5.139 0 0 1 4.612-2.562c3.677 0 6.1 2.906 6.1 7.396zm-3.056 0c0-2.933-1.516-4.861-3.828-4.861-2.272 0-3.8 1.968-3.8 4.86 0 2.92 1.528 4.874 3.8 4.874 2.312 0 3.828-1.914 3.828-4.873zm13.594 1.706c.22 1.97 2.134 3.264 4.75 3.264 2.506 0 4.31-1.294 4.31-3.07 0-1.543-1.088-2.466-3.663-3.099l-2.575-.62c-3.649-.882-5.343-2.588-5.343-5.357 0-3.428 2.988-5.782 7.23-5.782 4.199 0 7.077 2.354 7.174 5.782h-3.002c-.18-1.982-1.819-3.18-4.214-3.18-2.395 0-4.034 1.212-4.034 2.974 0 1.405 1.046 2.231 3.607 2.864l2.19.538c4.076.964 5.77 2.601 5.77 5.508 0 3.717-2.961 6.045-7.67 6.045-4.407 0-7.382-2.274-7.574-5.867h3.044zm18.617-12.378v3.428h2.755v2.354h-2.755v7.986c0 1.241.552 1.82 1.762 1.82.327-.007.654-.03.979-.07v2.341a8.166 8.166 0 0 1-1.652.138c-2.933 0-4.077-1.102-4.077-3.911v-8.304h-2.106v-2.354h2.106V30.88h2.988zm4.35 10.672c0-4.558 2.684-7.422 6.87-7.422 4.2 0 6.872 2.864 6.872 7.422 0 4.57-2.658 7.421-6.872 7.421-4.212 0-6.87-2.851-6.87-7.421zm10.712 0c0-3.127-1.432-4.972-3.842-4.972s-3.84 1.86-3.84 4.972c0 3.139 1.43 4.97 3.84 4.97s3.842-1.831 3.842-4.97zm5.482-7.244h2.836v2.465h.068a3.455 3.455 0 0 1 3.485-2.617c.342-.001.684.036 1.019.111v2.781a4.157 4.157 0 0 0-1.336-.18 2.996 2.996 0 0 0-3.099 3.334v8.592h-2.973V34.308zm21.117 10.231c-.4 2.63-2.961 4.434-6.238 4.434-4.214 0-6.83-2.823-6.83-7.353 0-4.543 2.63-7.49 6.705-7.49 4.008 0 6.529 2.753 6.529 7.145v1.019h-10.232v.18a3.773 3.773 0 0 0 3.897 4.103 3.277 3.277 0 0 0 3.345-2.038h2.824zm-10.052-4.323h7.243a3.484 3.484 0 0 0-3.554-3.677 3.667 3.667 0 0 0-3.689 3.677zM60.522 13.97a4.223 4.223 0 0 1 4.492 4.743c0 3.05-1.648 4.804-4.492 4.804h-3.449V13.97h3.449zm-1.966 8.196h1.8a3.001 3.001 0 0 0 3.149-3.433 3.01 3.01 0 0 0-3.149-3.414h-1.8v6.847zm8.133-2.255a3.413 3.413 0 1 1 6.795 0 3.414 3.414 0 1 1-6.795 0zm5.333 0c0-1.562-.702-2.475-1.933-2.475-1.236 0-1.931.913-1.931 2.475 0 1.574.695 2.48 1.931 2.48 1.231 0 1.933-.912 1.933-2.48zm10.495 3.605h-1.475l-1.489-5.306h-.112l-1.483 5.306h-1.461l-1.986-7.204h1.442l1.29 5.497h.107l1.481-5.497h1.364l1.482 5.497h.112l1.284-5.497h1.422l-1.978 7.204zm3.649-7.204h1.368v1.144h.107a2.157 2.157 0 0 1 2.15-1.283 2.343 2.343 0 0 1 2.493 2.68v4.663h-1.421V19.21c0-1.157-.504-1.733-1.555-1.733a1.653 1.653 0 0 0-1.72 1.826v4.214h-1.422v-7.204zm8.384-2.813h1.422v10.017H94.55V13.5zm3.398 6.412a3.414 3.414 0 1 1 6.797 0 3.414 3.414 0 1 1-6.797 0zm5.333 0c0-1.562-.701-2.475-1.933-2.475-1.235 0-1.93.913-1.93 2.475 0 1.574.695 2.48 1.93 2.48 1.232 0 1.933-.912 1.933-2.48zm2.96 1.568c0-1.297.966-2.045 2.68-2.15l1.952-.113v-.622c0-.761-.503-1.19-1.475-1.19-.794 0-1.344.29-1.502.8h-1.376c.145-1.238 1.309-2.031 2.943-2.031 1.807 0 2.825.899 2.825 2.42v4.923h-1.368v-1.012h-.113a2.424 2.424 0 0 1-2.164 1.131 2.176 2.176 0 0 1-2.402-2.156zm4.632-.616v-.602l-1.76.112c-.992.067-1.442.404-1.442 1.04 0 .648.563 1.025 1.336 1.025a1.698 1.698 0 0 0 1.866-1.575zm3.284-.952c0-2.277 1.17-3.719 2.99-3.719.92-.042 1.78.45 2.21 1.264h.106V13.5h1.422v10.017h-1.362v-1.138h-.113a2.5 2.5 0 0 1-2.262 1.257c-1.833 0-2.99-1.442-2.99-3.724zm1.469 0c0 1.528.72 2.448 1.925 2.448 1.198 0 1.939-.933 1.939-2.442 0-1.501-.749-2.447-1.94-2.447-1.196 0-1.924.925-1.924 2.44zm11.142 0a3.413 3.413 0 1 1 6.795 0 3.414 3.414 0 1 1-6.795 0zm5.333 0c0-1.562-.702-2.475-1.933-2.475-1.236 0-1.931.913-1.931 2.475 0 1.574.695 2.48 1.931 2.48 1.231 0 1.933-.912 1.933-2.48zm3.37-3.6h1.369v1.145h.106a2.157 2.157 0 0 1 2.15-1.283 2.343 2.343 0 0 1 2.494 2.68v4.663h-1.422V19.21c0-1.157-.503-1.733-1.555-1.733a1.653 1.653 0 0 0-1.72 1.826v4.214h-1.422v-7.204zm14.153-1.793v1.827h1.561v1.197h-1.56v3.705c0 .755.31 1.085 1.018 1.085.181 0 .362-.012.542-.033v1.185c-.255.045-.514.07-.773.072-1.581 0-2.211-.556-2.211-1.945v-4.069h-1.144v-1.198h1.144v-1.826h1.423zm3.503-1.019h1.41v3.97h.112a2.217 2.217 0 0 1 2.197-1.29 2.373 2.373 0 0 1 2.481 2.686v4.651h-1.423v-4.3c0-1.151-.536-1.734-1.54-1.734a1.683 1.683 0 0 0-1.815 1.827v4.207h-1.422V13.5zm14.491 8.072a2.925 2.925 0 0 1-3.122 2.084 3.272 3.272 0 0 1-3.328-3.718 3.323 3.323 0 0 1 3.322-3.764c2.005 0 3.214 1.37 3.214 3.632v.496h-5.088v.08a1.904 1.904 0 0 0 1.92 2.063 1.727 1.727 0 0 0 1.713-.873h1.369zm-5.002-2.322h3.64a1.738 1.738 0 0 0-1.774-1.866 1.843 1.843 0 0 0-1.866 1.866zM39.63 32.481a7.918 7.918 0 0 1 3.77-6.643 8.105 8.105 0 0 0-6.385-3.452c-2.687-.283-5.292 1.607-6.66 1.607-1.396 0-3.504-1.58-5.774-1.533a8.504 8.504 0 0 0-7.157 4.365c-3.094 5.357-.786 13.231 2.178 17.562 1.483 2.12 3.216 4.489 5.484 4.405 2.22-.092 3.048-1.415 5.727-1.415 2.654 0 3.432 1.415 5.746 1.361 2.381-.038 3.882-2.13 5.313-4.27A17.54 17.54 0 0 0 44.3 39.52a7.651 7.651 0 0 1-4.67-7.039zm-4.37-12.944a7.796 7.796 0 0 0 1.783-5.585 7.932 7.932 0 0 0-5.132 2.656 7.418 7.418 0 0 0-1.83 5.378c2.01.02 3.919-.882 5.179-2.449z"/>
    </g>
</svg>
