<svg xmlns="http://www.w3.org/2000/svg" width="216" height="64" viewBox="0 0 216 64">
    <defs>
        <linearGradient id="a" x1="61.034%" x2="26.503%" y1="4.948%" y2="71.907%">
            <stop offset="0%" stop-color="#00A0FF"/>
            <stop offset="1%" stop-color="#00A1FF"/>
            <stop offset="26%" stop-color="#00BEFF"/>
            <stop offset="51%" stop-color="#00D2FF"/>
            <stop offset="76%" stop-color="#00DFFF"/>
            <stop offset="100%" stop-color="#00E3FF"/>
        </linearGradient>
        <linearGradient id="b" x1="107.685%" x2="-130.64%" y1="50%" y2="50%">
            <stop offset="0%" stop-color="#FFE000"/>
            <stop offset="41%" stop-color="#FFBD00"/>
            <stop offset="78%" stop-color="#FFA500"/>
            <stop offset="100%" stop-color="#FF9C00"/>
        </linearGradient>
        <linearGradient id="c" x1="86.219%" x2="-50.15%" y1="30.911%" y2="135.988%">
            <stop offset="0%" stop-color="#FF3A44"/>
            <stop offset="100%" stop-color="#C31162"/>
        </linearGradient>
        <linearGradient id="d" x1="-18.754%" x2="42.121%" y1="-11.832%" y2="35.095%">
            <stop offset="0%" stop-color="#32A071"/>
            <stop offset="7%" stop-color="#2DA771"/>
            <stop offset="48%" stop-color="#15CF74"/>
            <stop offset="80%" stop-color="#06E775"/>
            <stop offset="100%" stop-color="#00F076"/>
        </linearGradient>
    </defs>
    <g fill="none" fill-rule="nonzero">
        <rect width="215" height="63" x=".5" y=".5" fill="#000" stroke="#A6A6A6" rx="5"/>
        <path fill="#FFF" d="M109.024 34.8a6.8 6.8 0 1 0 6.832 6.8 6.704 6.704 0 0 0-6.832-6.8zm0 10.928a4.128 4.128 0 1 1 3.84-4.128 3.936 3.936 0 0 1-3.84 4.128zM94.128 34.8a6.8 6.8 0 1 0 6.816 6.8 6.704 6.704 0 0 0-6.832-6.8h.016zm0 10.928a4.128 4.128 0 1 1 3.824-4.128 3.936 3.936 0 0 1-3.84 4.128h.016zm-17.744-8.832v2.88h6.912a6.032 6.032 0 0 1-1.6 3.632 7.072 7.072 0 0 1-5.328 2.112 7.68 7.68 0 1 1 0-15.36 7.36 7.36 0 0 1 5.232 2.064l2.032-2.032a10.064 10.064 0 0 0-7.248-2.992 10.576 10.576 0 1 0 0 21.136 9.6 9.6 0 0 0 7.376-2.96 9.6 9.6 0 0 0 2.496-6.752 9.392 9.392 0 0 0-.16-1.808l-9.712.08zm72.496 2.24a6.4 6.4 0 0 0-5.824-4.336 6.4 6.4 0 0 0-6.4 6.8 6.656 6.656 0 0 0 6.752 6.8 6.768 6.768 0 0 0 5.664-3.008l-2.32-1.6a3.888 3.888 0 0 1-3.344 1.888 3.456 3.456 0 0 1-3.296-2.064l9.104-3.76-.336-.72zm-9.28 2.272a3.728 3.728 0 0 1 3.552-3.968 2.64 2.64 0 0 1 2.528 1.44l-6.08 2.528zM132.208 48h2.992V28h-2.992v20zm-4.896-11.68h-.112a4.8 4.8 0 0 0-3.584-1.6 6.816 6.816 0 0 0 0 13.616 4.64 4.64 0 0 0 3.584-1.6h.096v.976c0 2.608-1.392 4-3.632 4a3.76 3.76 0 0 1-3.424-2.416l-2.608 1.088a6.48 6.48 0 0 0 6.032 4.016c3.504 0 6.4-2.064 6.4-7.088V35.2h-2.752v1.12zm-3.424 9.408a4.144 4.144 0 0 1 0-8.256 3.84 3.84 0 0 1 3.632 4.128 3.808 3.808 0 0 1-3.648 4.128h.016zM162.896 28h-7.152v20h2.992v-7.584h4.176a6.224 6.224 0 1 0 0-12.416h-.016zm0 9.6h-4.176v-6.816h4.24a3.432 3.432 0 0 1 0 6.864l-.064-.048zm18.448-2.88a5.6 5.6 0 0 0-5.328 3.056l2.656 1.104a2.832 2.832 0 0 1 2.72-1.472 2.88 2.88 0 0 1 3.2 2.576v.208a6.608 6.608 0 0 0-3.12-.768c-2.864 0-5.76 1.6-5.76 4.496a4.624 4.624 0 0 0 4.96 4.4 4.208 4.208 0 0 0 3.84-1.92h.096V48h2.88v-7.696c0-3.504-2.656-5.536-6.064-5.536l-.08-.048zm-.368 10.96c-.976 0-2.336-.496-2.336-1.696 0-1.6 1.696-2.128 3.2-2.128.95-.023 1.89.209 2.72.672a3.616 3.616 0 0 1-3.504 3.2l-.08-.048zm17.008-10.48l-3.424 8.672h-.096l-3.552-8.672h-3.2l5.328 12.128-3.04 6.736h3.12l8.192-18.864h-3.328zM171.088 48h2.992V28h-2.992v20z"/>
        <path fill="#FFF" stroke="#FFF" stroke-width=".2" d="M75.872 16.384a4.336 4.336 0 0 1-1.2 3.2 4.656 4.656 0 0 1-3.52 1.424 5.04 5.04 0 0 1-3.536-8.592 4.8 4.8 0 0 1 3.536-1.44 4.96 4.96 0 0 1 1.968.4c.579.234 1.094.6 1.504 1.072l-.848.848a3.2 3.2 0 0 0-2.624-1.136A3.712 3.712 0 0 0 67.424 16a3.776 3.776 0 0 0 6.4 2.768 3.024 3.024 0 0 0 .8-1.952h-3.472v-1.152h4.656c.043.238.064.479.064.72zm7.328-4h-4.32v3.04h3.936v1.152H78.88v3.04h4.32V20.8h-5.6v-9.6h5.6v1.184zm5.248 8.416h-1.232v-8.416h-2.688V11.2H91.2v1.184h-2.752V20.8zm7.456 0v-9.6h1.232v9.6h-1.232zm6.704 0h-1.232v-8.416h-2.688V11.2h6.592v1.184h-2.672V20.8zm15.168-1.248a4.992 4.992 0 0 1-7.04 0 5.184 5.184 0 0 1 0-7.12 4.96 4.96 0 0 1 7.04 0 5.168 5.168 0 0 1 0 7.12zm-6.128-.8a3.696 3.696 0 0 0 5.216 0 4.096 4.096 0 0 0 0-5.504 3.696 3.696 0 0 0-5.216 0 4.096 4.096 0 0 0 0 5.504zm9.28 2.048v-9.6h1.504l4.672 7.472V11.2h1.232v9.6h-1.28l-4.88-7.824V20.8h-1.248z"/>
        <path fill="url(#a)" d="M2.304.864a3.2 3.2 0 0 0-.736 2.24v35.392a3.2 3.2 0 0 0 .736 2.24l.112.112L22.24 21.04v-.464L2.416.752l-.112.112z" transform="translate(14.4 11.2)"/>
        <path fill="url(#b)" d="M28.8 27.648l-6.56-6.608v-.464l6.56-6.624.144.08 7.856 4.464c2.24 1.264 2.24 3.344 0 4.624l-7.824 4.448-.176.08z" transform="translate(14.4 11.2)"/>
        <path fill="url(#c)" d="M28.992 27.552L22.24 20.8 2.304 40.736c.942.828 2.34.868 3.328.096l23.376-13.28" transform="translate(14.4 11.2)"/>
        <path fill="url(#d)" d="M28.992 14.048L5.616.768a2.608 2.608 0 0 0-3.328.096L22.24 20.8l6.752-6.752z" transform="translate(14.4 11.2)"/>
        <path fill="#000" d="M43.2 38.608l-23.184 13.2c-.949.71-2.251.71-3.2 0l-.112.112.112.112a2.656 2.656 0 0 0 3.2 0l23.376-13.28-.192-.144z" opacity=".2"/>
        <path fill="#000" d="M16.704 51.712a3.2 3.2 0 0 1-.736-2.24v.24a3.2 3.2 0 0 0 .736 2.24l.112-.112-.112-.128zM51.2 34.08l-8 4.528.144.144 7.856-4.448A2.8 2.8 0 0 0 52.8 32a2.976 2.976 0 0 1-1.6 2.08z" opacity=".12"/>
        <path fill="#FFF" d="M20.016 12.192L51.2 29.92A2.976 2.976 0 0 1 52.8 32a2.8 2.8 0 0 0-1.6-2.304L20.016 11.968c-2.24-1.264-4.064-.208-4.064 2.352v.24c.048-2.576 1.84-3.632 4.064-2.368z" opacity=".25"/>
    </g>
</svg>
